Coordinates
version=1
nRows=16
nColumns=30
inDegrees=yes

Units are S.I. units (second, meters, Newtons, ...)
Angles are in degrees.

endheader
time	floatyaw	floatroll	floatpitch	floatx	floaty	floatz	pro_sup_l	deviation_l	flexion_l	cmc_flexion_l	cmc_abduction_l	mp_flexion_l	ip_flexion_l	2mcp_flexion_l	2mcp_abduction_l	2pm_flexion_l	2md_flexion_l	3mcp_flexion_l	3mcp_abduction_l	3pm_flexion_l	3md_flexion_l	4mcp_flexion_l	4mcp_abduction_l	4pm_flexion_l	4md_flexion_l	5mcp_flexion_l	5mcp_abduction_l	5pm_flexion_l	5md_flexion_l
0.005000	3.029614	-4.103828	101.268469	0.061524	-0.164057	0.047083	77.893644	13.714288	-1.954364	12.133423	28.290786	-27.026991	-45.363555	52.782396	6.399750	55.334699	36.833636	50.024538	5.114852	60.891442	43.877982	48.201077	-6.348311	71.586253	56.145555	63.131026	-4.243253	67.315378	39.040914
0.015000	3.029614	-4.103828	101.268469	0.062054	-0.161409	0.046968	77.522666	13.873222	-2.433306	12.042166	27.636892	-27.384040	-45.667228	53.322688	6.428692	55.496811	36.949938	50.624479	5.122433	60.958573	43.944119	49.024033	-6.372642	71.549530	56.234179	64.378578	-4.292111	67.069098	38.726084
0.025000	3.029614	-4.103828	101.268469	0.062551	-0.158051	0.046879	77.438701	14.129760	-2.917161	12.077658	26.855135	-27.834705	-46.113989	54.002185	6.420378	55.513071	37.046819	51.423461	5.127829	60.830587	43.912000	49.996637	-6.390643	71.358381	56.290032	65.808608	-4.353969	66.601487	38.334906
0.035000	3.029614	-4.103828	101.268469	0.063026	-0.154438	0.046815	77.624378	14.490314	-3.348457	12.191327	25.992368	-28.343704	-46.684153	54.805379	6.387798	55.323357	37.131971	52.379865	5.128814	60.472748	43.796239	51.081914	-6.396352	70.919376	56.302866	67.365533	-4.428315	65.892371	37.818549
0.045000	3.029614	-4.103828	101.268469	0.063480	-0.151104	0.046754	78.000596	14.935441	-3.668943	12.332244	25.101810	-28.842102	-47.299483	55.668778	6.348869	54.915187	37.206339	53.376948	5.125199	59.932801	43.637687	52.179454	-6.387895	70.226640	56.256663	68.920832	-4.502372	64.997051	37.182536
0.055000	3.029614	-4.103828	101.268469	0.063890	-0.148517	0.046655	78.428169	15.414575	-3.855673	12.462576	24.231895	-29.254089	-47.856922	56.484650	6.320339	54.349413	37.274543	54.266408	5.118818	59.330791	43.495217	53.165576	-6.369561	69.383233	56.149943	70.317481	-4.556852	64.058456	36.500662
0.065000	3.029614	-4.103828	101.268469	0.064219	-0.146942	0.046475	78.755765	15.861724	-3.934360	12.568923	23.413917	-29.528494	-48.273041	57.131057	6.312345	53.753080	37.350369	54.920642	5.112806	58.814186	43.424132	53.936556	-6.350156	68.563544	56.001346	71.420566	-4.576514	63.261137	35.886082
0.075000	3.029614	-4.103828	101.268469	0.064424	-0.146369	0.046202	78.886206	16.221249	-3.965301	12.664354	22.655128	-29.657182	-48.516649	57.517661	6.325387	53.274225	37.450617	55.274724	5.110050	58.498570	43.452266	54.440261	-6.338396	67.935637	55.840870	72.158256	-4.558387	62.751344	35.437369
0.085000	3.029614	-4.103828	101.268469	0.064479	-0.146551	0.045868	78.815445	16.467203	-4.014164	12.781035	21.935971	-29.670293	-48.611867	57.623004	6.351473	53.019213	37.581247	55.342821	5.111665	58.423249	43.567751	54.686311	-6.338467	67.588831	55.696309	72.539683	-4.512872	62.573790	35.193613
0.095000	3.029614	-4.103828	101.268469	0.064382	-0.147126	0.045537	78.619023	16.605984	-4.125062	12.957928	21.207996	-29.613510	-48.611972	57.502263	6.378974	53.007515	37.727493	55.204597	5.116504	58.543139	43.725922	54.733926	-6.348682	67.506586	55.584226	72.643907	-4.457925	62.662352	35.123495
0.105000	3.029614	-4.103828	101.268469	0.064162	-0.147765	0.045272	78.400011	16.664485	-4.307415	13.229069	20.393967	-29.523528	-48.563447	57.261720	6.398339	53.170027	37.857036	54.970008	5.121863	58.758468	43.870505	54.665244	-6.363625	67.593379	55.507795	72.585923	-4.410653	62.883966	35.148952
0.115000	3.029614	-4.103828	101.268469	0.063871	-0.148262	0.045107	78.234842	16.673818	-4.538950	13.614998	19.397227	-29.415692	-48.483264	57.014787	6.405446	53.390217	37.934615	54.739275	5.124761	58.964225	43.955755	54.556471	-6.377746	67.732348	55.458289	72.475704	-4.381012	63.104703	35.184569
0.125000	3.029614	-4.103828	101.268469	0.063563	-0.148555	0.045039	78.145651	16.657579	-4.780184	14.116381	18.126542	-29.285884	-48.358245	56.842142	6.401437	53.561632	37.937985	54.574553	5.123070	59.093003	43.958279	54.457819	-6.387981	67.838789	55.417632	72.387773	-4.369837	63.241780	35.170613
0.135000	3.029614	-4.103828	101.268469	0.063284	-0.148688	0.045034	78.105158	16.627629	-4.992060	14.709432	16.532911	-29.119703	-48.159259	56.772373	6.390254	53.629426	37.866027	54.491493	5.116124	59.132299	43.876797	54.387107	-6.394263	67.885200	55.362649	72.350685	-4.370781	63.281062	35.087454
0.145000	3.029614	-4.103828	101.268469	0.063061	-0.148750	0.045047	78.062816	16.585695	-5.148772	15.346726	14.642052	-28.902557	-47.859178	56.786093	6.376109	53.598841	37.736766	54.468322	5.104675	59.113894	43.725695	54.334997	-6.398386	67.893919	55.272389	72.354426	-4.374541	63.261333	34.951574
0.155000	3.029614	-4.103828	101.268469	0.062898	-0.148817	0.045046	77.975424	16.527714	-5.242067	15.967907	12.562447	-28.628444	-47.448795	56.835782	6.362241	53.514852	37.578844	54.464110	5.090336	59.086596	43.528661	54.276669	-6.402374	67.909100	55.137313	72.367119	-4.373436	63.240782	34.800215
